<svg xmlns="http://www.w3.org/2000/svg" xmlns:xlink="http://www.w3.org/1999/xlink" width="2054" zoomAndPan="magnify" viewBox="0 0 1540.5 541.499989" height="722" preserveAspectRatio="xMidYMid meet" version="1.0"><defs><g/><clipPath id="47d6c0a626"><path d="M 996 185 L 1119 185 L 1119 319 L 996 319 Z M 996 185 " clip-rule="nonzero"/></clipPath><clipPath id="5d3f41fe0f"><path d="M 1057.324219 185.390625 C 1077.519531 185.390625 1093.324219 192.609375 1104.730469 207.046875 L 1109.128906 213.515625 C 1115.648438 224.675781 1118.90625 237.742188 1118.90625 252.722656 C 1118.90625 269.746094 1114.160156 284.328125 1104.671875 296.464844 C 1102.324219 299.496094 1099.746094 302.1875 1096.933594 304.539062 C 1086.269531 313.542969 1073.121094 318.042969 1057.484375 318.042969 C 1038.078125 318.042969 1022.644531 311.203125 1011.179688 297.523438 C 1001.101562 285.472656 996.0625 270.21875 996.0625 251.757812 C 996.0625 230.585938 1002.5 213.792969 1015.375 201.378906 C 1026.496094 190.722656 1040.480469 185.390625 1057.324219 185.390625 Z M 1057.324219 205.753906 C 1044.246094 205.753906 1034.078125 210.867188 1026.832031 221.101562 C 1021.082031 229.292969 1018.207031 239.511719 1018.207031 251.757812 C 1018.207031 268.027344 1023.046875 280.375 1032.722656 288.808594 C 1039.425781 294.722656 1047.679688 297.683594 1057.484375 297.683594 C 1070.472656 297.683594 1080.59375 292.660156 1087.847656 282.617188 C 1093.738281 274.585938 1096.683594 264.515625 1096.683594 252.402344 C 1096.683594 235.34375 1091.722656 222.605469 1081.808594 214.183594 C 1075.15625 208.5625 1066.996094 205.753906 1057.324219 205.753906 Z M 1057.324219 205.753906 " clip-rule="evenodd"/></clipPath><linearGradient x1="-0.0510198" gradientTransform="matrix(690.171358, 0, 0, 329.488516, 510.187277, 105.347854)" y1="-0.0510198" x2="1.338966" gradientUnits="userSpaceOnUse" y2="1.338966" id="8dcc657702"><stop stop-opacity="1" stop-color="rgb(14.509583%, 38.819885%, 92.158508%)" offset="0"/><stop stop-opacity="1" stop-color="rgb(14.509583%, 38.819885%, 92.158508%)" offset="0.03125"/><stop stop-opacity="1" stop-color="rgb(14.489746%, 38.871765%, 92.14325%)" offset="0.0390625"/><stop stop-opacity="1" stop-color="rgb(14.402771%, 39.102173%, 92.080688%)" offset="0.046875"/><stop stop-opacity="1" stop-color="rgb(14.271545%, 39.456177%, 91.983032%)" offset="0.0546875"/><stop stop-opacity="1" stop-color="rgb(14.138794%, 39.808655%, 91.885376%)" offset="0.0625"/><stop stop-opacity="1" stop-color="rgb(14.007568%, 40.162659%, 91.786194%)" offset="0.0703125"/><stop stop-opacity="1" stop-color="rgb(13.874817%, 40.516663%, 91.688538%)" offset="0.078125"/><stop stop-opacity="1" stop-color="rgb(13.742065%, 40.869141%, 91.590881%)" offset="0.0859375"/><stop stop-opacity="1" stop-color="rgb(13.61084%, 41.223145%, 91.493225%)" offset="0.09375"/><stop stop-opacity="1" stop-color="rgb(13.478088%, 41.577148%, 91.395569%)" offset="0.101563"/><stop stop-opacity="1" stop-color="rgb(13.346863%, 41.929626%, 91.296387%)" offset="0.109375"/><stop stop-opacity="1" stop-color="rgb(13.214111%, 42.28363%, 91.19873%)" offset="0.117188"/><stop stop-opacity="1" stop-color="rgb(13.082886%, 42.637634%, 91.101074%)" offset="0.125"/><stop stop-opacity="1" stop-color="rgb(12.950134%, 42.990112%, 91.003418%)" offset="0.132813"/><stop stop-opacity="1" stop-color="rgb(12.818909%, 43.344116%, 90.905762%)" offset="0.140625"/><stop stop-opacity="1" stop-color="rgb(12.686157%, 43.69812%, 90.80658%)" offset="0.148438"/><stop stop-opacity="1" stop-color="rgb(12.554932%, 44.050598%, 90.708923%)" offset="0.15625"/><stop stop-opacity="1" stop-color="rgb(12.42218%, 44.404602%, 90.611267%)" offset="0.164063"/><stop stop-opacity="1" stop-color="rgb(12.289429%, 44.758606%, 90.513611%)" offset="0.171875"/><stop stop-opacity="1" stop-color="rgb(12.158203%, 45.111084%, 90.415955%)" offset="0.179688"/><stop stop-opacity="1" stop-color="rgb(12.025452%, 45.465088%, 90.316772%)" offset="0.1875"/><stop stop-opacity="1" stop-color="rgb(11.894226%, 45.817566%, 90.219116%)" offset="0.195313"/><stop stop-opacity="1" stop-color="rgb(11.761475%, 46.17157%, 90.12146%)" offset="0.203125"/><stop stop-opacity="1" stop-color="rgb(11.630249%, 46.525574%, 90.023804%)" offset="0.210938"/><stop stop-opacity="1" stop-color="rgb(11.497498%, 46.878052%, 89.926147%)" offset="0.21875"/><stop stop-opacity="1" stop-color="rgb(11.366272%, 47.232056%, 89.826965%)" offset="0.226563"/><stop stop-opacity="1" stop-color="rgb(11.233521%, 47.58606%, 89.729309%)" offset="0.234375"/><stop stop-opacity="1" stop-color="rgb(11.102295%, 47.938538%, 89.631653%)" offset="0.242188"/><stop stop-opacity="1" stop-color="rgb(10.969543%, 48.292542%, 89.533997%)" offset="0.25"/><stop stop-opacity="1" stop-color="rgb(10.838318%, 48.646545%, 89.43634%)" offset="0.257812"/><stop stop-opacity="1" stop-color="rgb(10.705566%, 48.999023%, 89.338684%)" offset="0.265625"/><stop stop-opacity="1" stop-color="rgb(10.572815%, 49.353027%, 89.239502%)" offset="0.273438"/><stop stop-opacity="1" stop-color="rgb(10.441589%, 49.707031%, 89.141846%)" offset="0.28125"/><stop stop-opacity="1" stop-color="rgb(10.308838%, 50.059509%, 89.044189%)" offset="0.289062"/><stop stop-opacity="1" stop-color="rgb(10.177612%, 50.413513%, 88.946533%)" offset="0.296875"/><stop stop-opacity="1" stop-color="rgb(10.044861%, 50.767517%, 88.848877%)" offset="0.304688"/><stop stop-opacity="1" stop-color="rgb(9.913635%, 51.119995%, 88.749695%)" offset="0.3125"/><stop stop-opacity="1" stop-color="rgb(9.780884%, 51.473999%, 88.652039%)" offset="0.320312"/><stop stop-opacity="1" stop-color="rgb(9.649658%, 51.828003%, 88.554382%)" offset="0.328125"/><stop stop-opacity="1" stop-color="rgb(9.516907%, 52.180481%, 88.456726%)" offset="0.335938"/><stop stop-opacity="1" stop-color="rgb(9.385681%, 52.534485%, 88.35907%)" offset="0.34375"/><stop stop-opacity="1" stop-color="rgb(9.25293%, 52.886963%, 88.259888%)" offset="0.351562"/><stop stop-opacity="1" stop-color="rgb(9.121704%, 53.240967%, 88.162231%)" offset="0.359375"/><stop stop-opacity="1" stop-color="rgb(8.988953%, 53.594971%, 88.064575%)" offset="0.367188"/><stop stop-opacity="1" stop-color="rgb(8.856201%, 53.947449%, 87.966919%)" offset="0.375"/><stop stop-opacity="1" stop-color="rgb(8.724976%, 54.301453%, 87.869263%)" offset="0.382813"/><stop stop-opacity="1" stop-color="rgb(8.592224%, 54.655457%, 87.770081%)" offset="0.390625"/><stop stop-opacity="1" stop-color="rgb(8.460999%, 55.007935%, 87.672424%)" offset="0.398438"/><stop stop-opacity="1" stop-color="rgb(8.328247%, 55.361938%, 87.574768%)" offset="0.40625"/><stop stop-opacity="1" stop-color="rgb(8.197021%, 55.715942%, 87.477112%)" offset="0.410186"/><stop stop-opacity="1" stop-color="rgb(8.131409%, 55.892944%, 87.428284%)" offset="0.414062"/><stop stop-opacity="1" stop-color="rgb(8.06427%, 56.06842%, 87.379456%)" offset="0.421875"/><stop stop-opacity="1" stop-color="rgb(7.933044%, 56.422424%, 87.280273%)" offset="0.429688"/><stop stop-opacity="1" stop-color="rgb(7.800293%, 56.776428%, 87.182617%)" offset="0.4375"/><stop stop-opacity="1" stop-color="rgb(7.669067%, 57.128906%, 87.084961%)" offset="0.445313"/><stop stop-opacity="1" stop-color="rgb(7.536316%, 57.48291%, 86.987305%)" offset="0.453125"/><stop stop-opacity="1" stop-color="rgb(7.40509%, 57.836914%, 86.889648%)" offset="0.460938"/><stop stop-opacity="1" stop-color="rgb(7.272339%, 58.189392%, 86.791992%)" offset="0.46875"/><stop stop-opacity="1" stop-color="rgb(7.139587%, 58.543396%, 86.69281%)" offset="0.476562"/><stop stop-opacity="1" stop-color="rgb(7.008362%, 58.895874%, 86.595154%)" offset="0.484375"/><stop stop-opacity="1" stop-color="rgb(6.87561%, 59.249878%, 86.497498%)" offset="0.492188"/><stop stop-opacity="1" stop-color="rgb(6.744385%, 59.603882%, 86.399841%)" offset="0.5"/><stop stop-opacity="1" stop-color="rgb(6.611633%, 59.95636%, 86.302185%)" offset="0.507813"/><stop stop-opacity="1" stop-color="rgb(6.480408%, 60.310364%, 86.203003%)" offset="0.515625"/><stop stop-opacity="1" stop-color="rgb(6.347656%, 60.664368%, 86.105347%)" offset="0.523438"/><stop stop-opacity="1" stop-color="rgb(6.216431%, 61.016846%, 86.00769%)" offset="0.53125"/><stop stop-opacity="1" stop-color="rgb(6.083679%, 61.37085%, 85.910034%)" offset="0.539062"/><stop stop-opacity="1" stop-color="rgb(5.952454%, 61.724854%, 85.812378%)" offset="0.546875"/><stop stop-opacity="1" stop-color="rgb(5.819702%, 62.077332%, 85.713196%)" offset="0.554688"/><stop stop-opacity="1" stop-color="rgb(5.688477%, 62.431335%, 85.61554%)" offset="0.5625"/><stop stop-opacity="1" stop-color="rgb(5.555725%, 62.785339%, 85.517883%)" offset="0.570313"/><stop stop-opacity="1" stop-color="rgb(5.422974%, 63.137817%, 85.420227%)" offset="0.578125"/><stop stop-opacity="1" stop-color="rgb(5.291748%, 63.491821%, 85.322571%)" offset="0.585938"/><stop stop-opacity="1" stop-color="rgb(5.158997%, 63.845825%, 85.223389%)" offset="0.589814"/><stop stop-opacity="1" stop-color="rgb(5.093384%, 64.022827%, 85.174561%)" offset="0.59375"/><stop stop-opacity="1" stop-color="rgb(5.027771%, 64.198303%, 85.125732%)" offset="0.601562"/><stop stop-opacity="1" stop-color="rgb(4.89502%, 64.552307%, 85.028076%)" offset="0.609375"/><stop stop-opacity="1" stop-color="rgb(4.763794%, 64.906311%, 84.93042%)" offset="0.617188"/><stop stop-opacity="1" stop-color="rgb(4.631042%, 65.258789%, 84.832764%)" offset="0.625"/><stop stop-opacity="1" stop-color="rgb(4.499817%, 65.612793%, 84.733582%)" offset="0.632813"/><stop stop-opacity="1" stop-color="rgb(4.367065%, 65.965271%, 84.635925%)" offset="0.640625"/><stop stop-opacity="1" stop-color="rgb(4.23584%, 66.319275%, 84.538269%)" offset="0.648438"/><stop stop-opacity="1" stop-color="rgb(4.103088%, 66.673279%, 84.440613%)" offset="0.65625"/><stop stop-opacity="1" stop-color="rgb(3.971863%, 67.025757%, 84.342957%)" offset="0.664062"/><stop stop-opacity="1" stop-color="rgb(3.839111%, 67.379761%, 84.243774%)" offset="0.671875"/><stop stop-opacity="1" stop-color="rgb(3.70636%, 67.733765%, 84.146118%)" offset="0.679688"/><stop stop-opacity="1" stop-color="rgb(3.575134%, 68.086243%, 84.048462%)" offset="0.6875"/><stop stop-opacity="1" stop-color="rgb(3.442383%, 68.440247%, 83.950806%)" offset="0.695313"/><stop stop-opacity="1" stop-color="rgb(3.311157%, 68.79425%, 83.853149%)" offset="0.703125"/><stop stop-opacity="1" stop-color="rgb(3.178406%, 69.146729%, 83.755493%)" offset="0.710938"/><stop stop-opacity="1" stop-color="rgb(3.04718%, 69.500732%, 83.656311%)" offset="0.71875"/><stop stop-opacity="1" stop-color="rgb(2.914429%, 69.854736%, 83.558655%)" offset="0.726562"/><stop stop-opacity="1" stop-color="rgb(2.783203%, 70.207214%, 83.460999%)" offset="0.734375"/><stop stop-opacity="1" stop-color="rgb(2.650452%, 70.561218%, 83.363342%)" offset="0.742188"/><stop stop-opacity="1" stop-color="rgb(2.519226%, 70.915222%, 83.265686%)" offset="0.75"/><stop stop-opacity="1" stop-color="rgb(2.401733%, 71.231079%, 83.177185%)" offset="1"/></linearGradient><clipPath id="4c70bb497e"><path d="M 1120 187 L 1195 187 L 1195 319 L 1120 319 Z M 1120 187 " clip-rule="nonzero"/></clipPath><clipPath id="34fd27f567"><path d="M 1172.769531 187.402344 L 1194.992188 187.402344 L 1194.992188 280.855469 C 1194.992188 295.773438 1189.460938 306.488281 1178.402344 313 C 1172.5 316.363281 1165.570312 318.042969 1157.621094 318.042969 C 1142.714844 318.042969 1132.054688 312.769531 1125.636719 302.226562 C 1122.367188 296.636719 1120.730469 290.183594 1120.730469 282.863281 L 1120.730469 268.90625 L 1143.277344 268.90625 L 1143.277344 280.050781 C 1143.277344 290.386719 1146.804688 296.34375 1153.863281 297.925781 C 1155.066406 298.191406 1156.371094 298.324219 1157.78125 298.324219 C 1162.957031 298.324219 1166.890625 296.359375 1169.585938 292.425781 C 1171.707031 289.3125 1172.769531 283.609375 1172.769531 275.308594 Z M 1172.769531 187.402344 " clip-rule="evenodd"/></clipPath><linearGradient x1="0.0418004" gradientTransform="matrix(690.171358, 0, 0, 329.488516, 510.187277, 105.347854)" y1="0.0418004" x2="1.398632" gradientUnits="userSpaceOnUse" y2="1.398632" id="5c90a80144"><stop stop-opacity="1" stop-color="rgb(14.001465%, 40.179443%, 91.781616%)" offset="0"/><stop stop-opacity="1" stop-color="rgb(13.935852%, 40.351868%, 91.734314%)" offset="0.0078125"/><stop stop-opacity="1" stop-color="rgb(13.807678%, 40.696716%, 91.638184%)" offset="0.015625"/><stop stop-opacity="1" stop-color="rgb(13.677979%, 41.043091%, 91.542053%)" offset="0.0234375"/><stop stop-opacity="1" stop-color="rgb(13.549805%, 41.387939%, 91.447449%)" offset="0.03125"/><stop stop-opacity="1" stop-color="rgb(13.420105%, 41.732788%, 91.351318%)" offset="0.0390625"/><stop stop-opacity="1" stop-color="rgb(13.291931%, 42.077637%, 91.255188%)" offset="0.046875"/><stop stop-opacity="1" stop-color="rgb(13.162231%, 42.422485%, 91.160583%)" offset="0.0546875"/><stop stop-opacity="1" stop-color="rgb(13.034058%, 42.767334%, 91.064453%)" offset="0.0625"/><stop stop-opacity="1" stop-color="rgb(12.904358%, 43.112183%, 90.968323%)" offset="0.0703125"/><stop stop-opacity="1" stop-color="rgb(12.776184%, 43.457031%, 90.873718%)" offset="0.078125"/><stop stop-opacity="1" stop-color="rgb(12.646484%, 43.803406%, 90.777588%)" offset="0.0859375"/><stop stop-opacity="1" stop-color="rgb(12.518311%, 44.148254%, 90.681458%)" offset="0.09375"/><stop stop-opacity="1" stop-color="rgb(12.388611%, 44.493103%, 90.586853%)" offset="0.101562"/><stop stop-opacity="1" stop-color="rgb(12.260437%, 44.837952%, 90.490723%)" offset="0.109375"/><stop stop-opacity="1" stop-color="rgb(12.132263%, 45.1828%, 90.394592%)" offset="0.117187"/><stop stop-opacity="1" stop-color="rgb(12.002563%, 45.527649%, 90.299988%)" offset="0.125"/><stop stop-opacity="1" stop-color="rgb(11.87439%, 45.872498%, 90.203857%)" offset="0.132812"/><stop stop-opacity="1" stop-color="rgb(11.74469%, 46.217346%, 90.107727%)" offset="0.140625"/><stop stop-opacity="1" stop-color="rgb(11.616516%, 46.562195%, 90.013123%)" offset="0.148437"/><stop stop-opacity="1" stop-color="rgb(11.486816%, 46.908569%, 89.916992%)" offset="0.15625"/><stop stop-opacity="1" stop-color="rgb(11.358643%, 47.253418%, 89.820862%)" offset="0.164062"/><stop stop-opacity="1" stop-color="rgb(11.228943%, 47.598267%, 89.726257%)" offset="0.171875"/><stop stop-opacity="1" stop-color="rgb(11.100769%, 47.943115%, 89.630127%)" offset="0.179687"/><stop stop-opacity="1" stop-color="rgb(10.971069%, 48.287964%, 89.533997%)" offset="0.1875"/><stop stop-opacity="1" stop-color="rgb(10.842896%, 48.632812%, 89.439392%)" offset="0.195312"/><stop stop-opacity="1" stop-color="rgb(10.713196%, 48.977661%, 89.343262%)" offset="0.203125"/><stop stop-opacity="1" stop-color="rgb(10.585022%, 49.32251%, 89.248657%)" offset="0.210937"/><stop stop-opacity="1" stop-color="rgb(10.455322%, 49.668884%, 89.152527%)" offset="0.21875"/><stop stop-opacity="1" stop-color="rgb(10.327148%, 50.013733%, 89.056396%)" offset="0.226562"/><stop stop-opacity="1" stop-color="rgb(10.197449%, 50.358582%, 88.961792%)" offset="0.234375"/><stop stop-opacity="1" stop-color="rgb(10.069275%, 50.70343%, 88.865662%)" offset="0.242187"/><stop stop-opacity="1" stop-color="rgb(9.939575%, 51.048279%, 88.769531%)" offset="0.25"/><stop stop-opacity="1" stop-color="rgb(9.811401%, 51.393127%, 88.674927%)" offset="0.257812"/><stop stop-opacity="1" stop-color="rgb(9.683228%, 51.737976%, 88.578796%)" offset="0.265625"/><stop stop-opacity="1" stop-color="rgb(9.553528%, 52.082825%, 88.482666%)" offset="0.273438"/><stop stop-opacity="1" stop-color="rgb(9.425354%, 52.429199%, 88.388062%)" offset="0.28125"/><stop stop-opacity="1" stop-color="rgb(9.295654%, 52.774048%, 88.291931%)" offset="0.289062"/><stop stop-opacity="1" stop-color="rgb(9.16748%, 53.118896%, 88.195801%)" offset="0.296875"/><stop stop-opacity="1" stop-color="rgb(9.037781%, 53.463745%, 88.101196%)" offset="0.304687"/><stop stop-opacity="1" stop-color="rgb(8.909607%, 53.808594%, 88.005066%)" offset="0.3125"/><stop stop-opacity="1" stop-color="rgb(8.779907%, 54.153442%, 87.908936%)" offset="0.320312"/><stop stop-opacity="1" stop-color="rgb(8.651733%, 54.498291%, 87.814331%)" offset="0.328125"/><stop stop-opacity="1" stop-color="rgb(8.522034%, 54.84314%, 87.718201%)" offset="0.335937"/><stop stop-opacity="1" stop-color="rgb(8.39386%, 55.189514%, 87.62207%)" offset="0.34375"/><stop stop-opacity="1" stop-color="rgb(8.26416%, 55.534363%, 87.527466%)" offset="0.351562"/><stop stop-opacity="1" stop-color="rgb(8.135986%, 55.879211%, 87.431335%)" offset="0.359375"/><stop stop-opacity="1" stop-color="rgb(8.006287%, 56.22406%, 87.335205%)" offset="0.367188"/><stop stop-opacity="1" stop-color="rgb(7.878113%, 56.568909%, 87.240601%)" offset="0.375"/><stop stop-opacity="1" stop-color="rgb(7.748413%, 56.913757%, 87.14447%)" offset="0.382812"/><stop stop-opacity="1" stop-color="rgb(7.620239%, 57.258606%, 87.04834%)" offset="0.390625"/><stop stop-opacity="1" stop-color="rgb(7.49054%, 57.603455%, 86.953735%)" offset="0.395774"/><stop stop-opacity="1" stop-color="rgb(7.426453%, 57.777405%, 86.906433%)" offset="0.398438"/><stop stop-opacity="1" stop-color="rgb(7.362366%, 57.949829%, 86.857605%)" offset="0.40625"/><stop stop-opacity="1" stop-color="rgb(7.232666%, 58.294678%, 86.761475%)" offset="0.414063"/><stop stop-opacity="1" stop-color="rgb(7.104492%, 58.639526%, 86.66687%)" offset="0.421875"/><stop stop-opacity="1" stop-color="rgb(6.976318%, 58.984375%, 86.57074%)" offset="0.429687"/><stop stop-opacity="1" stop-color="rgb(6.846619%, 59.329224%, 86.474609%)" offset="0.4375"/><stop stop-opacity="1" stop-color="rgb(6.718445%, 59.674072%, 86.380005%)" offset="0.445313"/><stop stop-opacity="1" stop-color="rgb(6.588745%, 60.018921%, 86.283875%)" offset="0.453125"/><stop stop-opacity="1" stop-color="rgb(6.460571%, 60.36377%, 86.187744%)" offset="0.460938"/><stop stop-opacity="1" stop-color="rgb(6.330872%, 60.710144%, 86.09314%)" offset="0.46875"/><stop stop-opacity="1" stop-color="rgb(6.202698%, 61.054993%, 85.997009%)" offset="0.476562"/><stop stop-opacity="1" stop-color="rgb(6.072998%, 61.399841%, 85.900879%)" offset="0.484375"/><stop stop-opacity="1" stop-color="rgb(5.944824%, 61.74469%, 85.806274%)" offset="0.492188"/><stop stop-opacity="1" stop-color="rgb(5.815125%, 62.089539%, 85.710144%)" offset="0.5"/><stop stop-opacity="1" stop-color="rgb(5.686951%, 62.434387%, 85.614014%)" offset="0.507812"/><stop stop-opacity="1" stop-color="rgb(5.557251%, 62.779236%, 85.519409%)" offset="0.515625"/><stop stop-opacity="1" stop-color="rgb(5.429077%, 63.124084%, 85.423279%)" offset="0.523438"/><stop stop-opacity="1" stop-color="rgb(5.299377%, 63.470459%, 85.327148%)" offset="0.53125"/><stop stop-opacity="1" stop-color="rgb(5.171204%, 63.815308%, 85.232544%)" offset="0.539062"/><stop stop-opacity="1" stop-color="rgb(5.041504%, 64.160156%, 85.136414%)" offset="0.546875"/><stop stop-opacity="1" stop-color="rgb(4.91333%, 64.505005%, 85.040283%)" offset="0.554687"/><stop stop-opacity="1" stop-color="rgb(4.78363%, 64.849854%, 84.945679%)" offset="0.5625"/><stop stop-opacity="1" stop-color="rgb(4.655457%, 65.194702%, 84.849548%)" offset="0.570312"/><stop stop-opacity="1" stop-color="rgb(4.525757%, 65.539551%, 84.753418%)" offset="0.578125"/><stop stop-opacity="1" stop-color="rgb(4.397583%, 65.884399%, 84.658813%)" offset="0.585938"/><stop stop-opacity="1" stop-color="rgb(4.269409%, 66.230774%, 84.562683%)" offset="0.59375"/><stop stop-opacity="1" stop-color="rgb(4.139709%, 66.575623%, 84.466553%)" offset="0.601562"/><stop stop-opacity="1" stop-color="rgb(4.011536%, 66.920471%, 84.371948%)" offset="0.604226"/><stop stop-opacity="1" stop-color="rgb(3.947449%, 67.092896%, 84.324646%)" offset="0.609375"/><stop stop-opacity="1" stop-color="rgb(3.881836%, 67.26532%, 84.275818%)" offset="0.617188"/><stop stop-opacity="1" stop-color="rgb(3.753662%, 67.610168%, 84.179688%)" offset="0.625"/><stop stop-opacity="1" stop-color="rgb(3.623962%, 67.955017%, 84.085083%)" offset="0.632812"/><stop stop-opacity="1" stop-color="rgb(3.495789%, 68.299866%, 83.988953%)" offset="0.640625"/><stop stop-opacity="1" stop-color="rgb(3.366089%, 68.644714%, 83.892822%)" offset="0.648438"/><stop stop-opacity="1" stop-color="rgb(3.237915%, 68.991089%, 83.798218%)" offset="0.65625"/><stop stop-opacity="1" stop-color="rgb(3.108215%, 69.335938%, 83.702087%)" offset="0.664062"/><stop stop-opacity="1" stop-color="rgb(2.980042%, 69.680786%, 83.605957%)" offset="0.671875"/><stop stop-opacity="1" stop-color="rgb(2.850342%, 70.025635%, 83.511353%)" offset="0.679687"/><stop stop-opacity="1" stop-color="rgb(2.722168%, 70.370483%, 83.415222%)" offset="0.6875"/><stop stop-opacity="1" stop-color="rgb(2.592468%, 70.715332%, 83.319092%)" offset="0.695312"/><stop stop-opacity="1" stop-color="rgb(2.464294%, 71.060181%, 83.224487%)" offset="0.703125"/><stop stop-opacity="1" stop-color="rgb(2.374268%, 71.30127%, 83.157349%)" offset="0.71875"/><stop stop-opacity="1" stop-color="rgb(2.349854%, 71.369934%, 83.139038%)" offset="0.75"/><stop stop-opacity="1" stop-color="rgb(2.349854%, 71.369934%, 83.139038%)" offset="1"/></linearGradient></defs><path stroke-linecap="round" transform="matrix(0.748741, 0, 0, 0.74827, 1.043693, -0.000000000000042593)" fill="none" stroke-linejoin="round" d="M 259.998153 349.999931 L 399.998883 479.997668 L 600.001416 269.997709 " stroke="#10b981" stroke-width="68" stroke-opacity="1" stroke-miterlimit="4"/><g fill="#0f172a" fill-opacity="1"><g transform="translate(510.186823, 314.266024)"><g><path d="M 36.941406 -54.65625 L 36.941406 0 L 14.800781 0 L 14.800781 -126.863281 L 102.171875 -126.863281 L 102.171875 -106.503906 L 36.941406 -106.503906 L 36.941406 -75.019531 L 94.289062 -75.019531 L 94.289062 -54.65625 Z M 36.941406 -54.65625 "/></g></g></g><g fill="#0f172a" fill-opacity="1"><g transform="translate(610.80375, 314.266024)"><g><path d="M 11.339844 -93.105469 L 30.910156 -93.105469 L 30.910156 -86.101562 C 33.5 -90.269531 38.453125 -93.242188 45.761719 -95.023438 C 47.476562 -95.40625 49.238281 -95.597656 51.046875 -95.597656 C 52.382812 -95.597656 55.269531 -95.289062 59.703125 -94.667969 L 59.703125 -74.316406 C 50.246094 -74.1875 44.132812 -73.195312 41.363281 -71.335938 C 41.039062 -71.0625 40.683594 -70.800781 40.300781 -70.542969 C 34.789062 -66.542969 32.035156 -59.09375 32.035156 -48.199219 L 32.035156 0 L 11.339844 0 Z M 11.339844 -93.105469 "/></g></g></g><g fill="#0f172a" fill-opacity="1"><g transform="translate(669.517061, 314.266024)"><g><path d="M 91.3125 -38.5 L 27.738281 -38.5 C 27.804688 -33.628906 29.15625 -29.265625 31.792969 -25.40625 C 35.859375 -18.988281 41.820312 -15.78125 49.679688 -15.78125 C 59.183594 -15.78125 65.867188 -21.539062 69.730469 -33.0625 L 90.140625 -33.0625 C 87.015625 -15.851562 79.164062 -4.648438 66.589844 0.546875 C 61.34375 2.699219 55.519531 3.777344 49.113281 3.777344 C 32.882812 3.777344 20.980469 -2.824219 13.40625 -16.027344 C 8.8125 -24.003906 6.515625 -33.789062 6.515625 -45.386719 C 6.515625 -63.832031 12.109375 -77.628906 23.292969 -86.78125 C 30.46875 -92.65625 39.207031 -95.597656 49.515625 -95.597656 C 63.222656 -95.597656 73.984375 -90.664062 81.796875 -80.800781 C 84.210938 -77.800781 86.152344 -74.421875 87.625 -70.660156 C 90.082031 -64.253906 91.3125 -53.535156 91.3125 -38.5 Z M 28.296875 -56.53125 L 72.570312 -53.742188 C 71.464844 -53.875 70.519531 -54.007812 69.734375 -54.148438 C 69.734375 -61.808594 66.964844 -67.757812 61.433594 -71.996094 C 57.871094 -74.691406 53.816406 -76.039062 49.277344 -76.039062 C 41.300781 -76.039062 35.382812 -72.53125 31.53125 -65.515625 C 29.570312 -61.976562 28.492188 -58.984375 28.296875 -56.53125 Z M 28.296875 -56.53125 "/></g></g></g><g fill="#0f172a" fill-opacity="1"><g transform="translate(761.045484, 314.266024)"><g><path d="M 95.011719 -15.691406 L 95.011719 1.464844 C 89.160156 3.007812 84.882812 3.777344 82.171875 3.777344 C 72.539062 3.777344 66.800781 -0.625 64.957031 -9.425781 C 64.839844 -10.257812 65.695312 -10.804688 67.53125 -11.058594 C 59.179688 -1.285156 49.5625 3.660156 38.679688 3.777344 C 25.277344 3.777344 15.882812 -0.90625 10.488281 -10.277344 C 8.109375 -14.671875 6.917969 -19.621094 6.917969 -25.132812 C 6.917969 -37.855469 12.660156 -46.601562 24.148438 -51.363281 C 28.402344 -53.144531 35.859375 -54.699219 46.519531 -56.023438 C 48.199219 -56.234375 50.25 -56.527344 52.667969 -56.902344 C 59.390625 -57.707031 63.113281 -59.035156 63.832031 -60.886719 C 64.011719 -61.394531 64.101562 -62.09375 64.101562 -62.988281 L 64.101562 -66.605469 C 64.101562 -71.699219 60.648438 -74.746094 53.742188 -75.746094 C 52.027344 -75.941406 50.191406 -76.039062 48.230469 -76.039062 C 38.738281 -76.039062 33.261719 -72.835938 31.796875 -66.433594 C 31.609375 -65.542969 31.355469 -63.65625 31.03125 -60.765625 L 10.554688 -60.765625 C 11.007812 -71.84375 13.328125 -79.722656 17.523438 -84.40625 C 24.210938 -91.867188 34.609375 -95.597656 48.710938 -95.597656 C 70.011719 -95.597656 81.867188 -88.253906 84.273438 -73.574219 C 84.515625 -72 84.636719 -70.34375 84.636719 -68.617188 L 84.636719 -17.898438 C 84.636719 -15.679688 85.960938 -14.574219 88.605469 -14.574219 C 89.332031 -14.574219 91.46875 -14.945312 95.011719 -15.691406 Z M 64.101562 -30.640625 L 64.101562 -40.703125 C 63.492188 -40.425781 58.503906 -39.648438 49.136719 -38.367188 C 48.210938 -38.265625 47.148438 -38.109375 45.953125 -37.898438 C 35.730469 -36.441406 29.941406 -33.453125 28.585938 -28.9375 C 28.257812 -27.917969 28.09375 -26.757812 28.09375 -25.453125 C 28.09375 -20.164062 30.898438 -16.90625 36.503906 -15.679688 C 38.03125 -15.265625 39.742188 -15.054688 41.636719 -15.054688 C 48.683594 -15.054688 54.722656 -17.359375 59.761719 -21.96875 C 62.574219 -24.476562 64.019531 -27.371094 64.101562 -30.640625 Z M 64.101562 -30.640625 "/></g></g></g><g fill="#0f172a" fill-opacity="1"><g transform="translate(852.573917, 314.266024)"><g><path d="M 48.683594 -93.105469 L 48.683594 -75.074219 L 34.449219 -75.074219 L 34.449219 -19.425781 C 34.449219 -17 34.859375 -15.679688 35.675781 -15.460938 C 36.410156 -15.191406 37.40625 -15.054688 38.660156 -15.054688 C 41.070312 -15.054688 44.410156 -15.675781 48.683594 -16.917969 L 48.683594 1.988281 C 42.320312 3.183594 37.425781 3.777344 33.996094 3.777344 C 22.300781 3.777344 15.671875 -0.859375 14.117188 -10.136719 C 13.980469 -11.074219 13.914062 -12.136719 13.914062 -13.316406 L 13.914062 -75.074219 L 2.253906 -75.074219 L 2.253906 -93.105469 L 13.914062 -93.105469 L 13.914062 -116.816406 L 34.449219 -116.816406 L 34.449219 -93.105469 Z M 48.683594 -93.105469 "/></g></g></g><g fill="#0f172a" fill-opacity="1"><g transform="translate(898.338099, 314.266024)"><g><path d="M 91.3125 -38.5 L 27.738281 -38.5 C 27.804688 -33.628906 29.15625 -29.265625 31.792969 -25.40625 C 35.859375 -18.988281 41.820312 -15.78125 49.679688 -15.78125 C 59.183594 -15.78125 65.867188 -21.539062 69.730469 -33.0625 L 90.140625 -33.0625 C 87.015625 -15.851562 79.164062 -4.648438 66.589844 0.546875 C 61.34375 2.699219 55.519531 3.777344 49.113281 3.777344 C 32.882812 3.777344 20.980469 -2.824219 13.40625 -16.027344 C 8.8125 -24.003906 6.515625 -33.789062 6.515625 -45.386719 C 6.515625 -63.832031 12.109375 -77.628906 23.292969 -86.78125 C 30.46875 -92.65625 39.207031 -95.597656 49.515625 -95.597656 C 63.222656 -95.597656 73.984375 -90.664062 81.796875 -80.800781 C 84.210938 -77.800781 86.152344 -74.421875 87.625 -70.660156 C 90.082031 -64.253906 91.3125 -53.535156 91.3125 -38.5 Z M 28.296875 -56.53125 L 72.570312 -53.742188 C 71.464844 -53.875 70.519531 -54.007812 69.734375 -54.148438 C 69.734375 -61.808594 66.964844 -67.757812 61.433594 -71.996094 C 57.871094 -74.691406 53.816406 -76.039062 49.277344 -76.039062 C 41.300781 -76.039062 35.382812 -72.53125 31.53125 -65.515625 C 29.570312 -61.976562 28.492188 -58.984375 28.296875 -56.53125 Z M 28.296875 -56.53125 "/></g></g></g><g clip-path="url(#47d6c0a626)"><g clip-path="url(#5d3f41fe0f)"><path fill="url(#8dcc657702)" d="M 660.433594 0 L 660.433594 540.25 L 1447.4375 540.25 L 1447.4375 0 Z M 660.433594 0 " fill-rule="nonzero"/></g></g><g clip-path="url(#4c70bb497e)"><g clip-path="url(#34fd27f567)"><path fill="url(#5c90a80144)" d="M 788.554688 0 L 788.554688 540.25 L 1529.796875 540.25 L 1529.796875 0 Z M 788.554688 0 " fill-rule="nonzero"/></g></g><g fill="#475569" fill-opacity="1"><g transform="translate(521.414732, 396.579637)"><g><path d="M 7.109375 -12.921875 L 7.109375 0 L 3.5 0 L 3.5 -28.359375 L 22.53125 -28.359375 L 22.53125 -25.171875 L 7.109375 -25.171875 L 7.109375 -16.109375 L 20.671875 -16.109375 L 20.671875 -12.921875 Z M 7.109375 -12.921875 "/></g></g></g><g fill="#475569" fill-opacity="1"><g transform="translate(551.183973, 396.579637)"><g><path d="M 2.6875 -20.390625 L 5.6875 -20.390625 L 5.6875 -16.703125 C 7.175781 -19.109375 8.675781 -20.492188 10.1875 -20.859375 C 10.53125 -20.929688 10.882812 -20.96875 11.25 -20.96875 C 11.53125 -20.96875 11.941406 -20.929688 12.484375 -20.859375 L 12.484375 -17.546875 C 10.628906 -17.523438 9.296875 -17.242188 8.484375 -16.703125 C 8.398438 -16.640625 8.320312 -16.582031 8.25 -16.53125 C 6.71875 -15.414062 5.953125 -13.429688 5.953125 -10.578125 L 5.953125 0 L 2.6875 0 Z M 2.6875 -20.390625 "/></g></g></g><g fill="#475569" fill-opacity="1"><g transform="translate(571.049909, 396.579637)"><g><path d="M 19.96875 -9.09375 L 4.921875 -9.09375 C 4.953125 -7.238281 5.320312 -5.789062 6.03125 -4.75 C 7.144531 -2.988281 8.78125 -2.109375 10.9375 -2.109375 C 13.570312 -2.109375 15.34375 -3.46875 16.25 -6.1875 L 19.53125 -6.1875 C 18.957031 -3.050781 17.320312 -0.925781 14.625 0.1875 C 13.476562 0.65625 12.203125 0.890625 10.796875 0.890625 C 7.273438 0.890625 4.695312 -0.53125 3.0625 -3.375 C 2.050781 -5.132812 1.546875 -7.316406 1.546875 -9.921875 C 1.546875 -14.023438 2.765625 -17.078125 5.203125 -19.078125 C 6.753906 -20.335938 8.648438 -20.96875 10.890625 -20.96875 C 13.867188 -20.96875 16.203125 -19.90625 17.890625 -17.78125 C 18.410156 -17.132812 18.828125 -16.40625 19.140625 -15.59375 C 19.691406 -14.175781 19.96875 -12.007812 19.96875 -9.09375 Z M 5 -11.734375 L 16.453125 -11.734375 C 16.472656 -11.796875 16.484375 -11.878906 16.484375 -11.984375 C 16.484375 -14.066406 15.722656 -15.6875 14.203125 -16.84375 C 13.210938 -17.59375 12.09375 -17.96875 10.84375 -17.96875 C 8.632812 -17.96875 7 -17 5.9375 -15.0625 C 5.414062 -14.125 5.101562 -13.015625 5 -11.734375 Z M 5 -11.734375 "/></g></g></g><g fill="#475569" fill-opacity="1"><g transform="translate(598.671211, 396.579637)"><g><path d="M 20.84375 -1.90625 L 20.84375 0.53125 C 19.925781 0.769531 19.179688 0.890625 18.609375 0.890625 C 16.773438 0.890625 15.6875 0.0703125 15.34375 -1.5625 C 15.320312 -1.738281 15.296875 -1.921875 15.265625 -2.109375 C 13.003906 -0.128906 10.691406 0.867188 8.328125 0.890625 C 5.472656 0.890625 3.488281 -0.078125 2.375 -2.015625 C 1.882812 -2.921875 1.640625 -3.957031 1.640625 -5.125 C 1.640625 -7.769531 2.828125 -9.585938 5.203125 -10.578125 C 6.140625 -10.972656 7.832031 -11.320312 10.28125 -11.625 C 10.6875 -11.675781 11.175781 -11.742188 11.75 -11.828125 C 13.65625 -12.054688 14.75 -12.546875 15.03125 -13.296875 C 15.113281 -13.515625 15.15625 -13.773438 15.15625 -14.078125 L 15.15625 -14.9375 C 15.15625 -16.601562 14.101562 -17.585938 12 -17.890625 C 11.550781 -17.941406 11.082031 -17.96875 10.59375 -17.96875 C 7.914062 -17.96875 6.351562 -17 5.90625 -15.0625 C 5.863281 -14.820312 5.828125 -14.585938 5.796875 -14.359375 L 2.53125 -14.359375 C 2.601562 -16.222656 3.070312 -17.632812 3.9375 -18.59375 C 5.351562 -20.175781 7.609375 -20.96875 10.703125 -20.96875 C 15.273438 -20.96875 17.8125 -19.460938 18.3125 -16.453125 C 18.363281 -16.117188 18.390625 -15.769531 18.390625 -15.40625 L 18.390625 -3.421875 C 18.390625 -2.359375 18.972656 -1.828125 20.140625 -1.828125 C 20.359375 -1.828125 20.59375 -1.851562 20.84375 -1.90625 Z M 15.15625 -6.421875 L 15.15625 -10.0625 C 14.3125 -9.6875 12.828125 -9.351562 10.703125 -9.0625 C 10.472656 -9.039062 10.210938 -9.003906 9.921875 -8.953125 C 7.171875 -8.554688 5.585938 -7.660156 5.171875 -6.265625 C 5.066406 -5.953125 5.015625 -5.597656 5.015625 -5.203125 C 5.015625 -3.515625 5.882812 -2.484375 7.625 -2.109375 C 8.039062 -1.992188 8.507812 -1.9375 9.03125 -1.9375 C 10.90625 -1.9375 12.515625 -2.550781 13.859375 -3.78125 C 14.691406 -4.53125 15.125 -5.410156 15.15625 -6.421875 Z M 15.15625 -6.421875 "/></g></g></g><g fill="#475569" fill-opacity="1"><g transform="translate(626.292513, 396.579637)"><g><path d="M 9.890625 -20.390625 L 9.890625 -17.75 L 6.515625 -17.75 L 6.515625 -3.78125 C 6.515625 -2.789062 6.800781 -2.222656 7.375 -2.078125 C 7.613281 -1.984375 7.929688 -1.9375 8.328125 -1.9375 C 8.972656 -1.9375 9.492188 -1.992188 9.890625 -2.109375 L 9.890625 0.609375 C 8.867188 0.796875 7.976562 0.890625 7.21875 0.890625 C 4.914062 0.890625 3.617188 0.0234375 3.328125 -1.703125 C 3.304688 -1.878906 3.296875 -2.09375 3.296875 -2.34375 L 3.296875 -17.75 L 0.53125 -17.75 L 0.53125 -20.390625 L 3.296875 -20.390625 L 3.296875 -25.984375 L 6.515625 -25.984375 L 6.515625 -20.390625 Z M 9.890625 -20.390625 "/></g></g></g><g fill="#475569" fill-opacity="1"><g transform="translate(643.098127, 396.579637)"><g><path d="M 19.96875 -9.09375 L 4.921875 -9.09375 C 4.953125 -7.238281 5.320312 -5.789062 6.03125 -4.75 C 7.144531 -2.988281 8.78125 -2.109375 10.9375 -2.109375 C 13.570312 -2.109375 15.34375 -3.46875 16.25 -6.1875 L 19.53125 -6.1875 C 18.957031 -3.050781 17.320312 -0.925781 14.625 0.1875 C 13.476562 0.65625 12.203125 0.890625 10.796875 0.890625 C 7.273438 0.890625 4.695312 -0.53125 3.0625 -3.375 C 2.050781 -5.132812 1.546875 -7.316406 1.546875 -9.921875 C 1.546875 -14.023438 2.765625 -17.078125 5.203125 -19.078125 C 6.753906 -20.335938 8.648438 -20.96875 10.890625 -20.96875 C 13.867188 -20.96875 16.203125 -19.90625 17.890625 -17.78125 C 18.410156 -17.132812 18.828125 -16.40625 19.140625 -15.59375 C 19.691406 -14.175781 19.96875 -12.007812 19.96875 -9.09375 Z M 5 -11.734375 L 16.453125 -11.734375 C 16.472656 -11.796875 16.484375 -11.878906 16.484375 -11.984375 C 16.484375 -14.066406 15.722656 -15.6875 14.203125 -16.84375 C 13.210938 -17.59375 12.09375 -17.96875 10.84375 -17.96875 C 8.632812 -17.96875 7 -17 5.9375 -15.0625 C 5.414062 -14.125 5.101562 -13.015625 5 -11.734375 Z M 5 -11.734375 "/></g></g></g><g fill="#475569" fill-opacity="1"><g transform="translate(670.71943, 396.579637)"><g><path d="M 15.140625 -28.84375 C 19.648438 -28.84375 23.164062 -27.242188 25.6875 -24.046875 L 26.6875 -22.5625 C 28.144531 -20.070312 28.875 -17.128906 28.875 -13.734375 C 28.875 -9.898438 27.8125 -6.617188 25.6875 -3.890625 C 25.164062 -3.222656 24.59375 -2.628906 23.96875 -2.109375 C 21.601562 -0.109375 18.671875 0.890625 15.171875 0.890625 C 10.835938 0.890625 7.394531 -0.628906 4.84375 -3.671875 C 2.59375 -6.367188 1.46875 -9.800781 1.46875 -13.96875 C 1.46875 -18.738281 2.90625 -22.507812 5.78125 -25.28125 C 8.25 -27.65625 11.367188 -28.84375 15.140625 -28.84375 Z M 15.140625 -25.640625 C 11.765625 -25.640625 9.140625 -24.316406 7.265625 -21.671875 C 5.804688 -19.597656 5.078125 -17.03125 5.078125 -13.96875 C 5.078125 -9.875 6.3125 -6.75 8.78125 -4.59375 C 10.519531 -3.0625 12.648438 -2.296875 15.171875 -2.296875 C 18.515625 -2.296875 21.125 -3.59375 23 -6.1875 C 24.5 -8.226562 25.25 -10.769531 25.25 -13.8125 C 25.25 -18.09375 23.984375 -21.3125 21.453125 -23.46875 C 19.722656 -24.914062 17.617188 -25.640625 15.140625 -25.640625 Z M 15.140625 -25.640625 "/></g></g></g><g fill="#475569" fill-opacity="1"><g transform="translate(706.989491, 396.579637)"><g><path d="M 12.953125 -28.359375 L 16.578125 -28.359375 L 16.578125 -7.09375 C 16.578125 -3.875 15.40625 -1.570312 13.0625 -0.1875 C 11.789062 0.53125 10.289062 0.890625 8.5625 0.890625 C 5.332031 0.890625 3.039062 -0.222656 1.6875 -2.453125 C 0.988281 -3.640625 0.640625 -5.023438 0.640625 -6.609375 L 0.640625 -9.09375 L 4.359375 -9.09375 L 4.359375 -7.28125 C 4.359375 -4.40625 5.398438 -2.734375 7.484375 -2.265625 C 7.828125 -2.179688 8.195312 -2.140625 8.59375 -2.140625 C 10.101562 -2.140625 11.253906 -2.722656 12.046875 -3.890625 C 12.648438 -4.765625 12.953125 -6.265625 12.953125 -8.390625 Z M 12.953125 -28.359375 "/></g></g></g><g fill="#475569" fill-opacity="1"><g transform="translate(732.443853, 396.579637)"><g/></g></g><g fill="#475569" fill-opacity="1"><g transform="translate(749.838717, 396.579637)"><g><path d="M 11.046875 -12.140625 L 11.046875 -9.34375 L 1.78125 -9.34375 L 1.78125 -12.140625 Z M 11.046875 -12.140625 "/></g></g></g><g fill="#475569" fill-opacity="1"><g transform="translate(768.773244, 396.579637)"><g/></g></g><g fill="#475569" fill-opacity="1"><g transform="translate(786.168131, 396.579637)"><g><path d="M 7.109375 -12.921875 L 7.109375 0 L 3.5 0 L 3.5 -28.359375 L 22.53125 -28.359375 L 22.53125 -25.171875 L 7.109375 -25.171875 L 7.109375 -16.109375 L 20.671875 -16.109375 L 20.671875 -12.921875 Z M 7.109375 -12.921875 "/></g></g></g><g fill="#475569" fill-opacity="1"><g transform="translate(815.937349, 396.579637)"><g><path d="M 2.6875 -20.390625 L 5.6875 -20.390625 L 5.6875 -16.703125 C 7.175781 -19.109375 8.675781 -20.492188 10.1875 -20.859375 C 10.53125 -20.929688 10.882812 -20.96875 11.25 -20.96875 C 11.53125 -20.96875 11.941406 -20.929688 12.484375 -20.859375 L 12.484375 -17.546875 C 10.628906 -17.523438 9.296875 -17.242188 8.484375 -16.703125 C 8.398438 -16.640625 8.320312 -16.582031 8.25 -16.53125 C 6.71875 -15.414062 5.953125 -13.429688 5.953125 -10.578125 L 5.953125 0 L 2.6875 0 Z M 2.6875 -20.390625 "/></g></g></g><g fill="#475569" fill-opacity="1"><g transform="translate(835.803296, 396.579637)"><g><path d="M 19.96875 -9.09375 L 4.921875 -9.09375 C 4.953125 -7.238281 5.320312 -5.789062 6.03125 -4.75 C 7.144531 -2.988281 8.78125 -2.109375 10.9375 -2.109375 C 13.570312 -2.109375 15.34375 -3.46875 16.25 -6.1875 L 19.53125 -6.1875 C 18.957031 -3.050781 17.320312 -0.925781 14.625 0.1875 C 13.476562 0.65625 12.203125 0.890625 10.796875 0.890625 C 7.273438 0.890625 4.695312 -0.53125 3.0625 -3.375 C 2.050781 -5.132812 1.546875 -7.316406 1.546875 -9.921875 C 1.546875 -14.023438 2.765625 -17.078125 5.203125 -19.078125 C 6.753906 -20.335938 8.648438 -20.96875 10.890625 -20.96875 C 13.867188 -20.96875 16.203125 -19.90625 17.890625 -17.78125 C 18.410156 -17.132812 18.828125 -16.40625 19.140625 -15.59375 C 19.691406 -14.175781 19.96875 -12.007812 19.96875 -9.09375 Z M 5 -11.734375 L 16.453125 -11.734375 C 16.472656 -11.796875 16.484375 -11.878906 16.484375 -11.984375 C 16.484375 -14.066406 15.722656 -15.6875 14.203125 -16.84375 C 13.210938 -17.59375 12.09375 -17.96875 10.84375 -17.96875 C 8.632812 -17.96875 7 -17 5.9375 -15.0625 C 5.414062 -14.125 5.101562 -13.015625 5 -11.734375 Z M 5 -11.734375 "/></g></g></g><g fill="#475569" fill-opacity="1"><g transform="translate(863.42461, 396.579637)"><g><path d="M 20.84375 -1.90625 L 20.84375 0.53125 C 19.925781 0.769531 19.179688 0.890625 18.609375 0.890625 C 16.773438 0.890625 15.6875 0.0703125 15.34375 -1.5625 C 15.320312 -1.738281 15.296875 -1.921875 15.265625 -2.109375 C 13.003906 -0.128906 10.691406 0.867188 8.328125 0.890625 C 5.472656 0.890625 3.488281 -0.078125 2.375 -2.015625 C 1.882812 -2.921875 1.640625 -3.957031 1.640625 -5.125 C 1.640625 -7.769531 2.828125 -9.585938 5.203125 -10.578125 C 6.140625 -10.972656 7.832031 -11.320312 10.28125 -11.625 C 10.6875 -11.675781 11.175781 -11.742188 11.75 -11.828125 C 13.65625 -12.054688 14.75 -12.546875 15.03125 -13.296875 C 15.113281 -13.515625 15.15625 -13.773438 15.15625 -14.078125 L 15.15625 -14.9375 C 15.15625 -16.601562 14.101562 -17.585938 12 -17.890625 C 11.550781 -17.941406 11.082031 -17.96875 10.59375 -17.96875 C 7.914062 -17.96875 6.351562 -17 5.90625 -15.0625 C 5.863281 -14.820312 5.828125 -14.585938 5.796875 -14.359375 L 2.53125 -14.359375 C 2.601562 -16.222656 3.070312 -17.632812 3.9375 -18.59375 C 5.351562 -20.175781 7.609375 -20.96875 10.703125 -20.96875 C 15.273438 -20.96875 17.8125 -19.460938 18.3125 -16.453125 C 18.363281 -16.117188 18.390625 -15.769531 18.390625 -15.40625 L 18.390625 -3.421875 C 18.390625 -2.359375 18.972656 -1.828125 20.140625 -1.828125 C 20.359375 -1.828125 20.59375 -1.851562 20.84375 -1.90625 Z M 15.15625 -6.421875 L 15.15625 -10.0625 C 14.3125 -9.6875 12.828125 -9.351562 10.703125 -9.0625 C 10.472656 -9.039062 10.210938 -9.003906 9.921875 -8.953125 C 7.171875 -8.554688 5.585938 -7.660156 5.171875 -6.265625 C 5.066406 -5.953125 5.015625 -5.597656 5.015625 -5.203125 C 5.015625 -3.515625 5.882812 -2.484375 7.625 -2.109375 C 8.039062 -1.992188 8.507812 -1.9375 9.03125 -1.9375 C 10.90625 -1.9375 12.515625 -2.550781 13.859375 -3.78125 C 14.691406 -4.53125 15.125 -5.410156 15.15625 -6.421875 Z M 15.15625 -6.421875 "/></g></g></g><g fill="#475569" fill-opacity="1"><g transform="translate(891.045901, 396.579637)"><g><path d="M 9.890625 -20.390625 L 9.890625 -17.75 L 6.515625 -17.75 L 6.515625 -3.78125 C 6.515625 -2.789062 6.800781 -2.222656 7.375 -2.078125 C 7.613281 -1.984375 7.929688 -1.9375 8.328125 -1.9375 C 8.972656 -1.9375 9.492188 -1.992188 9.890625 -2.109375 L 9.890625 0.609375 C 8.867188 0.796875 7.976562 0.890625 7.21875 0.890625 C 4.914062 0.890625 3.617188 0.0234375 3.328125 -1.703125 C 3.304688 -1.878906 3.296875 -2.09375 3.296875 -2.34375 L 3.296875 -17.75 L 0.53125 -17.75 L 0.53125 -20.390625 L 3.296875 -20.390625 L 3.296875 -25.984375 L 6.515625 -25.984375 L 6.515625 -20.390625 Z M 9.890625 -20.390625 "/></g></g></g><g fill="#475569" fill-opacity="1"><g transform="translate(907.851527, 396.579637)"><g><path d="M 19.96875 -9.09375 L 4.921875 -9.09375 C 4.953125 -7.238281 5.320312 -5.789062 6.03125 -4.75 C 7.144531 -2.988281 8.78125 -2.109375 10.9375 -2.109375 C 13.570312 -2.109375 15.34375 -3.46875 16.25 -6.1875 L 19.53125 -6.1875 C 18.957031 -3.050781 17.320312 -0.925781 14.625 0.1875 C 13.476562 0.65625 12.203125 0.890625 10.796875 0.890625 C 7.273438 0.890625 4.695312 -0.53125 3.0625 -3.375 C 2.050781 -5.132812 1.546875 -7.316406 1.546875 -9.921875 C 1.546875 -14.023438 2.765625 -17.078125 5.203125 -19.078125 C 6.753906 -20.335938 8.648438 -20.96875 10.890625 -20.96875 C 13.867188 -20.96875 16.203125 -19.90625 17.890625 -17.78125 C 18.410156 -17.132812 18.828125 -16.40625 19.140625 -15.59375 C 19.691406 -14.175781 19.96875 -12.007812 19.96875 -9.09375 Z M 5 -11.734375 L 16.453125 -11.734375 C 16.472656 -11.796875 16.484375 -11.878906 16.484375 -11.984375 C 16.484375 -14.066406 15.722656 -15.6875 14.203125 -16.84375 C 13.210938 -17.59375 12.09375 -17.96875 10.84375 -17.96875 C 8.632812 -17.96875 7 -17 5.9375 -15.0625 C 5.414062 -14.125 5.101562 -13.015625 5 -11.734375 Z M 5 -11.734375 "/></g></g></g><g fill="#475569" fill-opacity="1"><g transform="translate(935.472841, 396.579637)"><g/></g></g><g fill="#475569" fill-opacity="1"><g transform="translate(952.867682, 396.579637)"><g><path d="M 15.140625 -28.84375 C 19.648438 -28.84375 23.164062 -27.242188 25.6875 -24.046875 L 26.6875 -22.5625 C 28.144531 -20.070312 28.875 -17.128906 28.875 -13.734375 C 28.875 -9.898438 27.8125 -6.617188 25.6875 -3.890625 C 25.164062 -3.222656 24.59375 -2.628906 23.96875 -2.109375 C 21.601562 -0.109375 18.671875 0.890625 15.171875 0.890625 C 10.835938 0.890625 7.394531 -0.628906 4.84375 -3.671875 C 2.59375 -6.367188 1.46875 -9.800781 1.46875 -13.96875 C 1.46875 -18.738281 2.90625 -22.507812 5.78125 -25.28125 C 8.25 -27.65625 11.367188 -28.84375 15.140625 -28.84375 Z M 15.140625 -25.640625 C 11.765625 -25.640625 9.140625 -24.316406 7.265625 -21.671875 C 5.804688 -19.597656 5.078125 -17.03125 5.078125 -13.96875 C 5.078125 -9.875 6.3125 -6.75 8.78125 -4.59375 C 10.519531 -3.0625 12.648438 -2.296875 15.171875 -2.296875 C 18.515625 -2.296875 21.125 -3.59375 23 -6.1875 C 24.5 -8.226562 25.25 -10.769531 25.25 -13.8125 C 25.25 -18.09375 23.984375 -21.3125 21.453125 -23.46875 C 19.722656 -24.914062 17.617188 -25.640625 15.140625 -25.640625 Z M 15.140625 -25.640625 "/></g></g></g><g fill="#475569" fill-opacity="1"><g transform="translate(989.137733, 396.579637)"><g><path d="M 2.71875 -20.390625 L 5.71875 -20.390625 L 5.71875 -16.96875 C 7.113281 -19.164062 8.800781 -20.453125 10.78125 -20.828125 C 11.300781 -20.921875 11.867188 -20.96875 12.484375 -20.96875 C 15.210938 -20.96875 17.125 -20.0625 18.21875 -18.25 C 18.707031 -17.414062 18.953125 -16.46875 18.953125 -15.40625 L 18.953125 0 L 15.71875 0 L 15.71875 -14.109375 C 15.71875 -15.929688 14.953125 -17.15625 13.421875 -17.78125 C 12.878906 -18.007812 12.242188 -18.125 11.515625 -18.125 C 9.335938 -18.125 7.769531 -17.128906 6.8125 -15.140625 C 6.257812 -14.046875 5.984375 -12.75 5.984375 -11.25 L 5.984375 0 L 2.71875 0 Z M 2.71875 -20.390625 "/></g></g></g><g fill="#475569" fill-opacity="1"><g transform="translate(1015.979737, 396.579637)"><g><path d="M 5.90625 -28.359375 L 5.90625 0 L 2.640625 0 L 2.640625 -28.359375 Z M 5.90625 -28.359375 "/></g></g></g><g fill="#475569" fill-opacity="1"><g transform="translate(1030.200217, 396.579637)"><g><path d="M 5.84375 -20.390625 L 5.84375 0 L 2.609375 0 L 2.609375 -20.390625 Z M 5.84375 -28.359375 L 5.84375 -24.28125 L 2.5625 -24.28125 L 2.5625 -28.359375 Z M 5.84375 -28.359375 "/></g></g></g><g fill="#475569" fill-opacity="1"><g transform="translate(1044.287611, 396.579637)"><g><path d="M 2.71875 -20.390625 L 5.71875 -20.390625 L 5.71875 -16.96875 C 7.113281 -19.164062 8.800781 -20.453125 10.78125 -20.828125 C 11.300781 -20.921875 11.867188 -20.96875 12.484375 -20.96875 C 15.210938 -20.96875 17.125 -20.0625 18.21875 -18.25 C 18.707031 -17.414062 18.953125 -16.46875 18.953125 -15.40625 L 18.953125 0 L 15.71875 0 L 15.71875 -14.109375 C 15.71875 -15.929688 14.953125 -17.15625 13.421875 -17.78125 C 12.878906 -18.007812 12.242188 -18.125 11.515625 -18.125 C 9.335938 -18.125 7.769531 -17.128906 6.8125 -15.140625 C 6.257812 -14.046875 5.984375 -12.75 5.984375 -11.25 L 5.984375 0 L 2.71875 0 Z M 2.71875 -20.390625 "/></g></g></g><g fill="#475569" fill-opacity="1"><g transform="translate(1071.129616, 396.579637)"><g><path d="M 19.96875 -9.09375 L 4.921875 -9.09375 C 4.953125 -7.238281 5.320312 -5.789062 6.03125 -4.75 C 7.144531 -2.988281 8.78125 -2.109375 10.9375 -2.109375 C 13.570312 -2.109375 15.34375 -3.46875 16.25 -6.1875 L 19.53125 -6.1875 C 18.957031 -3.050781 17.320312 -0.925781 14.625 0.1875 C 13.476562 0.65625 12.203125 0.890625 10.796875 0.890625 C 7.273438 0.890625 4.695312 -0.53125 3.0625 -3.375 C 2.050781 -5.132812 1.546875 -7.316406 1.546875 -9.921875 C 1.546875 -14.023438 2.765625 -17.078125 5.203125 -19.078125 C 6.753906 -20.335938 8.648438 -20.96875 10.890625 -20.96875 C 13.867188 -20.96875 16.203125 -19.90625 17.890625 -17.78125 C 18.410156 -17.132812 18.828125 -16.40625 19.140625 -15.59375 C 19.691406 -14.175781 19.96875 -12.007812 19.96875 -9.09375 Z M 5 -11.734375 L 16.453125 -11.734375 C 16.472656 -11.796875 16.484375 -11.878906 16.484375 -11.984375 C 16.484375 -14.066406 15.722656 -15.6875 14.203125 -16.84375 C 13.210938 -17.59375 12.09375 -17.96875 10.84375 -17.96875 C 8.632812 -17.96875 7 -17 5.9375 -15.0625 C 5.414062 -14.125 5.101562 -13.015625 5 -11.734375 Z M 5 -11.734375 "/></g></g></g><g fill="#475569" fill-opacity="1"><g transform="translate(1098.75093, 396.579637)"><g/></g></g><g fill="#475569" fill-opacity="1"><g transform="translate(1116.145771, 396.579637)"><g><path d="M 12.953125 -28.359375 L 16.578125 -28.359375 L 16.578125 -7.09375 C 16.578125 -3.875 15.40625 -1.570312 13.0625 -0.1875 C 11.789062 0.53125 10.289062 0.890625 8.5625 0.890625 C 5.332031 0.890625 3.039062 -0.222656 1.6875 -2.453125 C 0.988281 -3.640625 0.640625 -5.023438 0.640625 -6.609375 L 0.640625 -9.09375 L 4.359375 -9.09375 L 4.359375 -7.28125 C 4.359375 -4.40625 5.398438 -2.734375 7.484375 -2.265625 C 7.828125 -2.179688 8.195312 -2.140625 8.59375 -2.140625 C 10.101562 -2.140625 11.253906 -2.722656 12.046875 -3.890625 C 12.648438 -4.765625 12.953125 -6.265625 12.953125 -8.390625 Z M 12.953125 -28.359375 "/></g></g></g><g fill="#475569" fill-opacity="1"><g transform="translate(1141.600156, 396.579637)"><g><path d="M 18.765625 0 L 15.84375 0 L 15.84375 -2.84375 C 14.394531 -0.789062 12.707031 0.394531 10.78125 0.71875 C 10.257812 0.832031 9.675781 0.890625 9.03125 0.890625 C 6.257812 0.890625 4.335938 -0.015625 3.265625 -1.828125 C 2.773438 -2.660156 2.53125 -3.609375 2.53125 -4.671875 L 2.53125 -20.390625 L 5.765625 -20.390625 L 5.765625 -5.953125 C 5.765625 -4.140625 6.53125 -2.921875 8.0625 -2.296875 C 8.632812 -2.054688 9.269531 -1.9375 9.96875 -1.9375 C 12.164062 -1.9375 13.757812 -2.953125 14.75 -4.984375 C 15.269531 -6.066406 15.53125 -7.347656 15.53125 -8.828125 L 15.53125 -20.390625 L 18.765625 -20.390625 Z M 18.765625 0 "/></g></g></g><g fill="#475569" fill-opacity="1"><g transform="translate(1169.221424, 396.579637)"><g><path d="M 19.28125 -28.359375 L 19.28125 0 L 16.390625 0 L 16.390625 -2.671875 C 14.878906 -0.535156 13.007812 0.640625 10.78125 0.859375 C 10.5 0.878906 10.203125 0.890625 9.890625 0.890625 C 6.515625 0.890625 4.046875 -0.554688 2.484375 -3.453125 C 1.492188 -5.304688 1 -7.566406 1 -10.234375 C 1 -14.222656 2.15625 -17.195312 4.46875 -19.15625 C 5.945312 -20.363281 7.710938 -20.96875 9.765625 -20.96875 C 12.566406 -20.96875 14.660156 -19.914062 16.046875 -17.8125 L 16.046875 -28.359375 Z M 10.3125 -17.9375 C 8.101562 -17.9375 6.46875 -16.867188 5.40625 -14.734375 C 4.882812 -13.753906 4.5625 -12.601562 4.4375 -11.28125 C 4.40625 -10.863281 4.390625 -10.445312 4.390625 -10.03125 C 4.390625 -6.875 5.300781 -4.59375 7.125 -3.1875 C 8.050781 -2.488281 9.128906 -2.140625 10.359375 -2.140625 C 12.515625 -2.140625 14.09375 -3.207031 15.09375 -5.34375 C 15.726562 -6.632812 16.046875 -8.171875 16.046875 -9.953125 C 16.046875 -13.359375 15.109375 -15.722656 13.234375 -17.046875 C 12.367188 -17.640625 11.394531 -17.9375 10.3125 -17.9375 Z M 10.3125 -17.9375 "/></g></g></g><g fill="#475569" fill-opacity="1"><g transform="translate(1196.842739, 396.579637)"><g><path d="M 16.03125 -20.390625 L 19.03125 -20.390625 L 19.03125 -3.34375 C 19.03125 0.644531 18.5 3.46875 17.4375 5.125 C 17.257812 5.382812 17.078125 5.632812 16.890625 5.875 C 15.640625 7.425781 13.601562 8.28125 10.78125 8.4375 C 10.488281 8.457031 10.203125 8.46875 9.921875 8.46875 C 6.335938 8.46875 3.898438 7.328125 2.609375 5.046875 C 2.160156 4.242188 1.882812 3.332031 1.78125 2.3125 L 5.09375 2.3125 C 5.25 3.332031 5.660156 4.113281 6.328125 4.65625 C 7.265625 5.382812 8.5 5.75 10.03125 5.75 C 12.132812 5.75 13.644531 5.113281 14.5625 3.84375 C 15.332031 2.769531 15.71875 0.921875 15.71875 -1.703125 L 15.71875 -2.75 C 14.1875 -0.632812 12.476562 0.550781 10.59375 0.8125 L 9.53125 0.890625 C 7.375 0.890625 5.503906 0.0625 3.921875 -1.59375 C 3.835938 -1.664062 3.757812 -1.742188 3.6875 -1.828125 C 1.976562 -3.828125 1.125 -6.5 1.125 -9.84375 C 1.125 -13.800781 2.226562 -16.804688 4.4375 -18.859375 C 5.914062 -20.265625 7.707031 -20.96875 9.8125 -20.96875 C 12.34375 -20.96875 14.414062 -19.789062 16.03125 -17.4375 Z M 10.15625 -17.96875 C 7.875 -17.96875 6.25 -16.800781 5.28125 -14.46875 C 4.757812 -13.226562 4.5 -11.75 4.5 -10.03125 C 4.5 -6.4375 5.515625 -4.023438 7.546875 -2.796875 C 8.296875 -2.335938 9.175781 -2.109375 10.1875 -2.109375 C 12.5 -2.109375 14.109375 -3.300781 15.015625 -5.6875 C 15.484375 -6.875 15.71875 -8.285156 15.71875 -9.921875 C 15.71875 -13.804688 14.65625 -16.3125 12.53125 -17.4375 C 11.832031 -17.789062 11.039062 -17.96875 10.15625 -17.96875 Z M 10.15625 -17.96875 "/></g></g></g><g fill="#475569" fill-opacity="1"><g transform="translate(1224.464053, 396.579637)"><g><path d="M 19.96875 -9.09375 L 4.921875 -9.09375 C 4.953125 -7.238281 5.320312 -5.789062 6.03125 -4.75 C 7.144531 -2.988281 8.78125 -2.109375 10.9375 -2.109375 C 13.570312 -2.109375 15.34375 -3.46875 16.25 -6.1875 L 19.53125 -6.1875 C 18.957031 -3.050781 17.320312 -0.925781 14.625 0.1875 C 13.476562 0.65625 12.203125 0.890625 10.796875 0.890625 C 7.273438 0.890625 4.695312 -0.53125 3.0625 -3.375 C 2.050781 -5.132812 1.546875 -7.316406 1.546875 -9.921875 C 1.546875 -14.023438 2.765625 -17.078125 5.203125 -19.078125 C 6.753906 -20.335938 8.648438 -20.96875 10.890625 -20.96875 C 13.867188 -20.96875 16.203125 -19.90625 17.890625 -17.78125 C 18.410156 -17.132812 18.828125 -16.40625 19.140625 -15.59375 C 19.691406 -14.175781 19.96875 -12.007812 19.96875 -9.09375 Z M 5 -11.734375 L 16.453125 -11.734375 C 16.472656 -11.796875 16.484375 -11.878906 16.484375 -11.984375 C 16.484375 -14.066406 15.722656 -15.6875 14.203125 -16.84375 C 13.210938 -17.59375 12.09375 -17.96875 10.84375 -17.96875 C 8.632812 -17.96875 7 -17 5.9375 -15.0625 C 5.414062 -14.125 5.101562 -13.015625 5 -11.734375 Z M 5 -11.734375 "/></g></g></g></svg>